<?xml version="1.0" encoding="UTF-8"?>
<svg version="1.1" xmlns="http://www.w3.org/2000/svg" width="800" height="500">
<path d="M0 0 C264 0 528 0 800 0 C800 165 800 330 800 500 C536 500 272 500 0 500 C0 335 0 170 0 0 Z " fill="#6E40D7" transform="translate(0,0)"/>
<path d="M0 0 C125.4 0 250.8 0 380 0 C380.12375 52.820625 380.2475 105.64125 380.375 160.0625 C380.42962402 176.757229 380.48424805 193.45195801 380.54052734 210.65258789 C380.56762695 230.99694824 380.56762695 230.99694824 380.57266235 240.51292419 C380.57826535 247.1769119 380.60030662 253.84059898 380.63345337 260.50450134 C380.6716134 268.18762704 380.68902334 275.87046365 380.6806697 283.55368486 C380.6770509 287.48513573 380.68283602 291.41594032 380.71529078 295.34727299 C380.7498238 299.55588799 380.73798262 303.76309298 380.7215271 307.97181702 C380.73900309 309.20006919 380.75647907 310.42832136 380.77448463 311.6937933 C380.70763072 318.03183559 380.27585863 322.07956647 375.77541506 326.73145956 C371.60149046 329.71374368 367.86356776 330.25042902 362.81050205 330.25447559 C360.93053605 330.26322388 360.93053605 330.26322388 359.01259094 330.27214891 C357.62440604 330.26851583 356.23622163 330.26469146 354.84803772 330.26069641 C353.3713181 330.26371689 351.89460005 330.26760585 350.41788477 330.27228898 C346.35897486 330.28259108 342.30015306 330.28038154 338.24123585 330.27610838 C333.86419855 330.27364518 329.48718269 330.28265025 325.1101532 330.29014587 C316.53487 330.30290602 307.95961809 330.30468494 299.384327 330.30234561 C292.41557661 330.30056383 285.44683573 330.30230908 278.47808647 330.30657005 C277.48691693 330.30716524 276.4957474 330.30776043 275.47454242 330.30837366 C273.46109848 330.30958538 271.44765453 330.31079952 269.43421059 330.31201603 C250.54522298 330.32289656 231.65625322 330.3207266 212.7672646 330.31463119 C195.48012163 330.30946107 178.19303499 330.32071908 160.90590317 330.33972941 C143.16225585 330.35909243 125.4186352 330.36736654 107.67497724 330.36360615 C97.71053078 330.36169184 87.74613227 330.36420409 77.78169441 330.37832069 C69.29932313 330.39021588 60.81702933 330.39166032 52.33465702 330.37953053 C48.00583398 330.37362884 43.67715279 330.37257791 39.34833908 330.38453293 C35.38637802 330.39534778 31.42467801 330.39234112 27.46272939 330.37827124 C26.02873058 330.37561215 24.5947116 330.37802874 23.16073252 330.38600711 C21.21229053 330.3960962 19.26377511 330.38591037 17.31533909 330.37473011 C16.23280875 330.37478513 15.15027841 330.37484014 14.03494412 330.37489682 C9.16311308 329.7730953 5.8785336 327.73713883 2.16257954 324.61924553 C-1.47934141 319.84676869 -0.66892164 313.81103724 -0.60127258 308.09207153 C-0.60555267 306.77929733 -0.60983276 305.46652313 -0.61424255 304.1139679 C-0.62544802 300.46885586 -0.60540513 296.82447932 -0.58036365 293.17946067 C-0.55852583 289.18897897 -0.56583698 285.19853102 -0.56945324 281.20800591 C-0.57211137 273.46212453 -0.54902686 265.71653302 -0.5169466 257.97072612 C-0.48094934 249.01097304 -0.47697305 240.0513941 -0.47302246 231.09155273 C-0.44676972 207.43598921 -0.37696415 183.78049026 -0.3125 160.125 C-0.209375 107.28375 -0.10625 54.4425 0 0 Z " fill="#191A30" transform="translate(210,110)"/>
<path d="M0 0 C1.43956205 -0.00761181 1.43956205 -0.00761181 2.90820616 -0.0153774 C4.50855042 -0.01612404 4.50855042 -0.01612404 6.14122486 -0.01688576 C7.26490634 -0.02126801 8.38858782 -0.02565027 9.54632026 -0.03016531 C13.34340372 -0.04360988 17.14046394 -0.04974484 20.9375658 -0.0558567 C23.64715833 -0.06322297 26.35674594 -0.07201639 29.06633472 -0.08063698 C37.22173839 -0.10519034 45.37714821 -0.11979354 53.53257748 -0.13269705 C55.83516009 -0.1364072 58.13774208 -0.14038058 60.44032407 -0.14444971 C74.73100005 -0.16968722 89.02167694 -0.19174615 103.3123703 -0.20417786 C106.62460998 -0.20710769 109.93684963 -0.21006933 113.24908924 -0.21308327 C114.48399471 -0.21420234 114.48399471 -0.21420234 115.74384777 -0.21534403 C129.0802401 -0.22799749 142.4164991 -0.26121831 155.7528291 -0.3028851 C169.43734081 -0.34528997 183.12178425 -0.36887132 196.8063615 -0.37409842 C204.49280793 -0.37751448 212.17904612 -0.3892921 219.86542797 -0.42220116 C226.41191224 -0.45018324 232.95814563 -0.46120931 239.50468507 -0.4500057 C242.84541856 -0.44481372 246.18520033 -0.45045611 249.52592945 -0.47247124 C253.14789252 -0.49504381 256.76852407 -0.48692133 260.39049244 -0.47098732 C261.446235 -0.48486941 262.50197756 -0.49875149 263.58971232 -0.51305425 C268.2050363 -0.4628943 271.5347036 -0.41835888 275.22036934 2.5500145 C278.51983819 6.16233438 278.71355033 7.80493749 278.76031971 12.59306908 C278.77315495 13.73475548 278.78599018 14.87644188 278.79921436 16.05272484 C278.81029476 17.91202629 278.81029476 17.91202629 278.82159901 19.80888939 C278.82967075 21.07920006 278.8377425 22.34951073 278.84605885 23.65831566 C278.85991102 26.35177327 278.8709237 29.04510801 278.87848377 31.73857689 C278.88952925 35.17970022 278.92390599 38.6201735 278.96365547 42.06106758 C278.99617854 45.3519435 279.00060602 48.64287725 279.00909901 51.93388939 C279.02660709 53.16532677 279.04411518 54.39676414 279.06215382 55.66551781 C279.03497089 66.39065612 279.03497089 66.39065612 274.58331776 71.13701439 C272.20188561 72.32773046 270.74595531 72.26757506 268.08764648 72.27682209 C266.65984809 72.28535895 266.65984809 72.28535895 265.20320529 72.29406828 C263.62371638 72.29583809 263.62371638 72.29583809 262.01231861 72.29764366 C260.8993278 72.30273148 259.78633698 72.3078193 258.63961917 72.3130613 C254.88476935 72.3288428 251.12993884 72.33732578 247.3750658 72.34575462 C245.37612124 72.35286079 243.37717666 72.3599731 241.37823399 72.36759495 C232.62939002 72.40093837 223.88053426 72.42244285 215.13164756 72.4407948 C212.85432471 72.44558859 210.57700234 72.45057204 208.29967999 72.45560002 C194.16438814 72.48656758 180.02909222 72.51325892 165.89377594 72.53001881 C162.61882171 72.53396844 159.34386754 72.53797142 156.06891346 72.54204369 C154.84792054 72.54355623 154.84792054 72.54355623 153.6022611 72.54509933 C140.41072588 72.5621128 127.21937803 72.60322892 114.02793434 72.65406667 C100.49142887 72.70580614 86.95501986 72.73495611 73.41841632 72.74221569 C65.8152508 72.74688238 58.21239222 72.76167962 50.60932446 72.80195999 C44.13527244 72.83621694 37.66158272 72.85021714 31.18744525 72.83753585 C27.88326539 72.83169858 24.58001492 72.83890121 21.2759161 72.86570549 C17.69505818 72.89320815 14.11613861 72.88395595 10.53526783 72.86527061 C9.48896739 72.88206554 8.44266695 72.89886047 7.36466044 72.91616434 C0.53841352 72.82680405 0.53841352 72.82680405 -2.17866135 70.8644771 C-5.38420602 67.22005284 -6.03397151 64.26196512 -6.00017834 59.50493431 C-6.00302837 58.20726631 -6.00587841 56.90959831 -6.00881481 55.57260704 C-5.98660141 54.17088805 -5.96368667 52.76918002 -5.94011974 51.36748314 C-5.93332503 49.92114629 -5.92860602 48.47479833 -5.92586803 47.0284481 C-5.91522164 44.00807271 -5.888601 40.98844361 -5.84881115 37.96831322 C-5.79771714 34.0898693 -5.77275839 30.21185192 -5.75787449 26.33311558 C-5.74312192 22.63617866 -5.71788973 18.93934254 -5.69011974 15.24248314 C-5.68520897 14.5345027 -5.68029819 13.82652225 -5.67523861 13.09708786 C-5.65903191 11.1053781 -5.63450931 9.11374116 -5.60955334 7.12212181 C-5.59669292 5.98772163 -5.58383251 4.85332146 -5.57058239 3.68454552 C-5.31463441 -0.55219796 -3.82139326 0.01066891 0 0 Z " fill="#2E2F4F" transform="translate(253.41668224334717,149.8629856109619)"/>
<path d="M0 0 C125.4 0 250.8 0 380 0 C380 9.24 380 18.48 380 28 C254.6 28 129.2 28 0 28 C0 18.76 0 9.52 0 0 Z " fill="#34292B" transform="translate(210,110)"/>
<path d="M0 0 C124.74 0 249.48 0 378 0 C378 15 378 15 374.6875 18.875 C370.54022968 21.63984688 366.97949857 22.12576233 362.05659771 22.13142776 C360.18260486 22.13718948 360.18260486 22.13718948 358.27075356 22.1430676 C356.87668457 22.14228731 355.48261563 22.14140852 354.08854675 22.14044189 C352.61355442 22.14302479 351.13856279 22.14603774 349.66357213 22.1494453 C345.60016693 22.15752738 341.53677938 22.15930554 337.47336709 22.16004276 C333.09493622 22.16189121 328.71651455 22.16943747 324.33808899 22.17617798 C314.75965811 22.18977018 305.18123142 22.19578734 295.6027925 22.20018864 C289.62447441 22.20294944 283.64615795 22.20718648 277.66784096 22.21169281 C261.12265086 22.2238864 244.57746206 22.23418569 228.03226757 22.2375679 C226.44333243 22.23789725 226.44333243 22.23789725 224.82229759 22.23823325 C223.76044327 22.23845153 222.69858894 22.23866981 221.60455722 22.2388947 C219.45276145 22.23933817 217.30096569 22.23978473 215.14916992 22.24023438 C214.0818002 22.2404558 213.01443048 22.24067723 211.91471622 22.24090537 C194.61451609 22.24485447 177.31435805 22.2623115 160.01417419 22.2855939 C142.26155374 22.30929278 124.50895444 22.32176908 106.75631791 22.32293582 C96.78513028 22.32385338 86.81399749 22.32962607 76.84282494 22.34775543 C68.35309092 22.36313666 59.86342871 22.36828858 51.37368342 22.36001733 C47.04082002 22.35610386 42.70810129 22.35707431 38.37525558 22.37107468 C34.40952018 22.38377184 30.44403878 22.38265312 26.47830395 22.37048396 C25.04289692 22.36851969 23.60747215 22.37163902 22.17209008 22.38032833 C20.22173131 22.39138853 18.27128904 22.38216038 16.32092571 22.3719368 C15.23731123 22.37253389 14.15369674 22.37313097 13.03724545 22.37374616 C7.13317316 21.64722459 4.17064907 19.17064907 0 15 C0 10.05 0 5.1 0 0 Z " fill="#1B1A31" transform="translate(211,418)"/>
<path d="M0 0 C1.2755182 -0.00709439 2.55103639 -0.01418877 3.86520666 -0.02149814 C7.40371434 -0.04044155 10.94153171 -0.0281757 14.48002207 -0.01077521 C18.2967162 0.00258481 22.11330839 -0.01283328 25.92999268 -0.02459717 C33.40578831 -0.0429879 40.8813228 -0.03445221 48.35711033 -0.01650894 C54.43153754 -0.00249118 60.50589379 0.00141164 66.58033562 -0.00195122 C67.44441598 -0.00242866 68.30849635 -0.0029061 69.19876097 -0.00339801 C70.95403439 -0.00442433 72.7093078 -0.00547968 74.46458118 -0.00656378 C89.9894962 -0.0151336 105.514285 0.00155387 121.03916931 0.03126526 C136.11051229 0.06010835 151.18167348 0.06718422 166.2530365 0.05177307 C182.65859671 0.03502066 199.06407059 0.0309665 215.46963304 0.04848343 C217.21819364 0.05032786 218.96675425 0.05216258 220.71531487 0.0539875 C221.57567948 0.05489959 222.4360441 0.05581168 223.32248037 0.05675141 C229.39156687 0.06236241 235.46061129 0.05904444 241.52969551 0.05244255 C248.92301966 0.04471956 256.3161647 0.05142463 263.7094527 0.07661759 C267.48314401 0.08913626 271.25655615 0.09523074 275.03025818 0.08407593 C279.11670521 0.0722245 283.20241512 0.09124661 287.28881836 0.11352539 C288.48773226 0.10528462 289.68664617 0.09704386 290.9218908 0.08855337 C292.55944097 0.1051249 292.55944097 0.1051249 294.23007298 0.12203121 C295.64540202 0.12381843 295.64540202 0.12381843 297.08932358 0.12564176 C300.36865731 0.78707398 301.55870988 2.00606629 303.58091736 4.62818909 C303.98192651 7.45884193 304.14214635 9.81165568 304.08091736 12.62818909 C304.09638611 13.33975159 304.11185486 14.05131409 304.12779236 14.78443909 C304.10303932 18.10134645 303.93391545 20.17046932 301.88214201 22.83092922 C299.08585177 25.01483604 297.74447209 25.12990911 294.23007298 25.13434696 C293.13837286 25.14539465 292.04667274 25.15644234 290.9218908 25.1678248 C289.72297689 25.15958404 288.52406299 25.15134327 287.28881836 25.14285278 C286.01486015 25.14979831 284.74090195 25.15674384 283.42833894 25.16389984 C279.88960521 25.18257096 276.35128868 25.17620713 272.81253731 25.16574681 C268.9971697 25.15876733 265.18188888 25.17474319 261.36654663 25.18774414 C253.89099287 25.20941068 246.41559119 25.20925045 238.94001634 25.2011186 C232.86510088 25.19482413 226.79022984 25.19595053 220.71531487 25.20239067 C219.85138773 25.20329233 218.9874606 25.20419398 218.09735386 25.20512296 C216.34240464 25.20697412 214.58745543 25.20883668 212.83250623 25.21071052 C196.36709895 25.22729832 179.90177728 25.21856156 163.43637513 25.20172494 C148.36645907 25.18702803 133.29674239 25.20165448 118.22685201 25.2304951 C102.76019971 25.25987504 87.29363949 25.27086543 71.8269605 25.2613129 C70.07808556 25.26029033 68.3292106 25.25929572 66.58033562 25.25832939 C65.71981673 25.257853 64.85929783 25.25737661 63.97270261 25.25688579 C57.90457782 25.25471974 51.83654001 25.26453584 45.76843452 25.27910042 C38.37400044 25.2966005 30.97982058 25.29654006 23.5853966 25.27374876 C19.81152205 25.26258502 16.03809576 25.25949157 12.26424026 25.27804947 C8.17578908 25.29789591 4.08843573 25.27911791 0 25.25637817 C-1.19668318 25.2682139 -2.39336636 25.28004963 -3.62631267 25.29224402 C-11.62263105 25.20147379 -11.62263105 25.20147379 -15.6537714 22.29986477 C-17.90773305 18.88865071 -18.08793672 16.69784767 -18.04408264 12.62818909 C-18.05697327 11.43193909 -18.06986389 10.23568909 -18.08314514 9.00318909 C-16.14167192 -0.86406306 -8.27037851 -0.08179772 0 0 Z " fill="#2E2E50" transform="translate(239.41908264160156,384.37181091308594)"/>
<path d="M0 0 C0.65389709 -0.00817749 1.30779419 -0.01635498 1.98150635 -0.02478027 C4.14944546 -0.04962799 6.31731901 -0.0661504 8.48535156 -0.08056641 C9.22624275 -0.08589008 9.96713394 -0.09121376 10.73047638 -0.09669876 C14.6536404 -0.12343037 18.57677262 -0.14280332 22.5 -0.15722656 C25.74377704 -0.17055671 28.98692363 -0.19839065 32.23046875 -0.23925781 C36.14914152 -0.28863115 40.06724315 -0.31335342 43.98621368 -0.32045364 C45.47734051 -0.32715817 46.968455 -0.34235975 48.45940399 -0.36634445 C61.59506929 -0.56556278 61.59506929 -0.56556278 65.52539062 2.60058594 C68.69382837 6.51068263 69.01305391 9.00536068 68.98925781 13.93115234 C68.41786486 17.48853427 66.37477366 19.04746848 63.62597656 21.19287109 C63.13097656 21.68787109 63.13097656 21.68787109 62.62597656 22.19287109 C60.51100369 22.31345206 58.39196852 22.3631433 56.27368164 22.38574219 C55.27842468 22.39800842 55.27842468 22.39800842 54.26306152 22.41052246 C52.05721955 22.43542495 49.85144234 22.45190842 47.64550781 22.46630859 C46.51624658 22.47429411 46.51624658 22.47429411 45.36417198 22.48244095 C41.37617383 22.50919904 37.3882072 22.52856163 33.40014648 22.54296875 C29.2851948 22.55958499 25.171049 22.60432838 21.05640125 22.65534019 C17.88987848 22.68905129 14.72354556 22.70055057 11.55685997 22.70619583 C10.04061442 22.71290234 8.5243811 22.72810905 7.00831032 22.75208664 C4.87996265 22.78381529 2.75376757 22.78376476 0.62524414 22.77636719 C-1.18891243 22.78849747 -1.18891243 22.78849747 -3.03971863 22.8008728 C-7.51208184 21.98534914 -9.1591163 20.363059 -12.37402344 17.19287109 C-13.98832267 13.96427263 -13.96973 10.68293456 -13.37402344 7.19287109 C-9.94249305 1.21330135 -6.59506618 0.07154544 0 0 Z " fill="#2A1D4F" transform="translate(383.3740234375,347.80712890625)"/>
<path d="M0 0 C1.30177689 -0.0159874 2.60355377 -0.03197479 3.94477844 -0.04844666 C5.36837371 -0.054824 6.79197367 -0.06021654 8.21557617 -0.06469727 C9.67665194 -0.07366551 11.13772677 -0.08278739 12.59880066 -0.09205627 C15.662895 -0.10854796 18.72688007 -0.11624644 21.79101562 -0.11914062 C25.7086852 -0.12451883 29.62532088 -0.16217289 33.54269886 -0.20788479 C36.56169842 -0.23769944 39.58045062 -0.24486515 42.59958458 -0.24586678 C44.04324761 -0.25006192 45.48691186 -0.26246812 46.93042946 -0.28338432 C59.63297424 -0.45275897 59.63297424 -0.45275897 63.56591797 2.71630859 C66.57848339 6.37938098 66.979384 8.49463502 66.91870117 13.27124023 C66.59747927 16.2073211 65.51520567 18.01560146 63.69604492 20.30639648 C60.12269787 22.68862786 58.52915957 22.56923019 54.28442383 22.59692383 C53.63852798 22.60364105 52.99263214 22.61035828 52.3271637 22.61727905 C50.1922333 22.63627436 48.05761706 22.64018404 45.92260742 22.64233398 C44.4367154 22.64876125 42.95082466 22.65548956 41.4649353 22.6625061 C38.34955919 22.67448295 35.234294 22.67818656 32.11889648 22.67700195 C28.13177391 22.67679882 24.14536462 22.70409194 20.15841103 22.73854637 C17.08884431 22.76081335 14.01944924 22.76483956 10.94981003 22.7637825 C9.48022378 22.76613912 8.01063285 22.77496621 6.54112625 22.79044724 C4.48239871 22.81010337 2.42520879 22.80427274 0.36645508 22.79223633 C-1.38868912 22.79651138 -1.38868912 22.79651138 -3.17929077 22.8008728 C-6.94881456 22.20434784 -8.58483174 20.927175 -11.30395508 18.30639648 C-13.59249502 15.03705371 -13.77557725 12.23658129 -13.30395508 8.30639648 C-9.78081637 1.98904431 -7.17407569 0.06650619 0 0 Z " fill="#291C4E" transform="translate(298.303955078125,347.693603515625)"/>
<path d="M0 0 C0.88456879 -0.0127597 1.76913757 -0.02551941 2.68051147 -0.03866577 C4.11023788 -0.04200424 4.11023788 -0.04200424 5.56884766 -0.04541016 C6.55156647 -0.05206696 7.53428528 -0.05872375 8.54678345 -0.06558228 C10.62638476 -0.07571017 12.70601858 -0.08039925 14.78564453 -0.08007812 C17.96392559 -0.08444656 21.1408128 -0.12075208 24.31884766 -0.15869141 C26.33967624 -0.16456049 28.36051142 -0.16852927 30.38134766 -0.17041016 C31.33045013 -0.18478119 32.27955261 -0.19915222 33.25741577 -0.21395874 C37.56481109 -0.18420757 39.94392517 -0.12466212 43.66503906 2.20214844 C46.46723492 5.21420968 47.44924449 7.07409055 47.98291016 11.16552734 C47.50652514 15.13540248 46.0775059 17.1858927 43.60791016 20.29052734 C40.49158196 22.36807947 39.76119653 22.54629925 36.21582031 22.58105469 C35.33125153 22.59381439 34.44668274 22.6065741 33.53530884 22.61972046 C32.10558243 22.62305893 32.10558243 22.62305893 30.64697266 22.62646484 C29.17289444 22.63645004 29.17289444 22.63645004 27.66903687 22.64663696 C25.58943555 22.65676486 23.50980173 22.66145394 21.43017578 22.66113281 C18.25189473 22.66550125 15.07500752 22.70180676 11.89697266 22.73974609 C9.87614407 22.74561518 7.85530889 22.74958396 5.83447266 22.75146484 C4.88537018 22.76583588 3.9362677 22.78020691 2.95840454 22.79501343 C-1.34899078 22.76526225 -3.72810486 22.70571681 -7.44921875 20.37890625 C-10.2514146 17.36684501 -11.23342418 15.50696413 -11.76708984 11.41552734 C-11.29070483 7.44565221 -9.86168558 5.39516199 -7.39208984 2.29052734 C-4.27576165 0.21297521 -3.54537622 0.03475544 0 0 Z " fill="#2A1D4F" transform="translate(233.39208984375,347.70947265625)"/>
<path d="M0 0 C4.60442491 3.82033806 7.32637607 6.71736709 7.9609375 12.796875 C8.25436963 18.5792141 7.68127788 21.99264937 3.71875 26.4765625 C-0.09390208 30.22654084 -3.84095253 33.42540566 -9.3828125 33.5078125 C-15.95725048 33.06805076 -19.95838901 30.92847132 -24.53125 26.1015625 C-27.97665111 20.93346083 -28.69497827 16.70381044 -27.8203125 10.65234375 C-26.46634925 5.18743413 -22.88659314 1.47539059 -18.28125 -1.5234375 C-11.72690133 -4.29643117 -5.92753115 -3.95845402 0 0 Z " fill="#663AAD" transform="translate(249.28125,69.5234375)"/>
<path d="M0 0 C0.85464844 -0.01546875 1.70929687 -0.0309375 2.58984375 -0.046875 C6.34663835 -0.02343166 8.79974836 0.08155694 12.0625 2.03125 C14.06878619 5.47682845 14.08423997 8.62496134 14 12.5 C14.01546875 13.2115625 14.0309375 13.923125 14.046875 14.65625 C14.02278286 17.88459629 13.69462733 20.16574872 12.0625 22.96875 C8.13693899 25.31451206 4.4879758 25.08123033 0 25 C-1.28197266 25.02320313 -1.28197266 25.02320313 -2.58984375 25.046875 C-6.34663835 25.02343166 -8.79974836 24.91844306 -12.0625 22.96875 C-14.06878619 19.52317155 -14.08423997 16.37503866 -14 12.5 C-14.01546875 11.7884375 -14.0309375 11.076875 -14.046875 10.34375 C-14.02278286 7.11540371 -13.69462733 4.83425128 -12.0625 2.03125 C-8.13693899 -0.31451206 -4.4879758 -0.08123033 0 0 Z " fill="#934BF2" transform="translate(563.5,384.5)"/>
<path d="M0 0 C3.94875513 2.45865885 5.66872408 3.98776803 7.125 8.4375 C6.97177911 12.80429526 5.76736304 14.67916436 3 18 C-0.23415916 19.61707958 -3.50375265 19.56822376 -7 19 C-10.14249107 16.97047452 -11.63745366 15.53044369 -12.51171875 11.83984375 C-12.75802839 8.56118881 -12.73398271 6.08469117 -10.85546875 3.30859375 C-7.42328249 0.12997271 -4.53121574 -0.94400328 0 0 Z " fill="#904AED" transform="translate(235,150)"/>
<path d="M0 0 C1.65 0.33 3.3 0.66 5 1 C5 1.66 5 2.32 5 3 C5.66 3 6.32 3 7 3 C7 2.34 7 1.68 7 1 C18 1 29 1 40 1 C40 2.32 40 3.64 40 5 C32.74 5 25.48 5 18 5 C18 5.66 18 6.32 18 7 C17.34 7 16.68 7 16 7 C16 6.01 16 5.02 16 4 C15.01 4.33 14.02 4.66 13 5 C10.77181559 5.06937062 8.54165476 5.08457084 6.3125 5.0625 C4.54326172 5.04896484 4.54326172 5.04896484 2.73828125 5.03515625 C1.83464844 5.02355469 0.93101562 5.01195313 0 5 C-0.33 4.01 -0.66 3.02 -1 2 C-0.67 1.34 -0.34 0.68 0 0 Z " fill="#9D7BCF" transform="translate(277,89)"/>
<path d="M0 0 C0.66 0.99 1.32 1.98 2 3 C2.33 2.67 2.66 2.34 3 2 C5.67058851 1.85884839 8.32432238 1.95752893 11 2 C10.67 2.99 10.34 3.98 10 5 C10.66 5 11.32 5 12 5 C12.33 3.68 12.66 2.36 13 1 C14.62490954 0.97301811 16.24994633 0.95361243 17.875 0.9375 C19.23238281 0.92009766 19.23238281 0.92009766 20.6171875 0.90234375 C23 1 23 1 25 2 C26.32860925 2.35169068 27.66158328 2.68770276 29 3 C29 4.32 29 5.64 29 7 C21 7 13 7 5 7 C4.67 6.67 4.34 6.34 4 6 C3.67 6.66 3.34 7.32 3 8 C0.36 7.67 -2.28 7.34 -5 7 C-5 5.35 -5 3.7 -5 2 C-3.35 2 -1.7 2 0 2 C0 1.34 0 0.68 0 0 Z " fill="#9DA1B3" transform="translate(477,190)"/>
<path d="M0 0 C1.99673484 0.35236497 3.99650739 0.68834559 6 1 C6 0.34 6 -0.32 6 -1 C7.79240663 -0.88610125 9.58394835 -0.75852313 11.375 -0.625 C12.87160156 -0.52058594 12.87160156 -0.52058594 14.3984375 -0.4140625 C17 0 17 0 19 2 C18.625 4.125 18.625 4.125 18 6 C17.4225 5.835 16.845 5.67 16.25 5.5 C13.13204225 4.8071205 10.42604122 4.91082858 7.3125 5.5625 C6.549375 5.706875 5.78625 5.85125 5 6 C4.67 5.67 4.34 5.34 4 5 C3.01 5.99 2.02 6.98 1 8 C1.33 6.68 1.66 5.36 2 4 C1.34 4 0.68 4 0 4 C0 4.66 0 5.32 0 6 C-1.11375 5.7525 -1.11375 5.7525 -2.25 5.5 C-5.19006578 4.88074304 -5.19006578 4.88074304 -9 5 C-9.66 5 -10.32 5 -11 5 C-11 4.01 -11 3.02 -11 2 C-11.66 2 -12.32 2 -13 2 C-13 3.65 -13 5.3 -13 7 C-13.33 7 -13.66 7 -14 7 C-14 5.02 -14 3.04 -14 1 C-13.29875 1.04125 -12.5975 1.0825 -11.875 1.125 C-8.90449534 1.13049534 -8.90449534 1.13049534 -5.875 -0.0625 C-3 -1 -3 -1 0 0 Z " fill="#AEB3C2" transform="translate(284,191)"/>
<path d="M0 0 C0.66 0 1.32 0 2 0 C4.67113987 0.30036914 7.33399642 0.65599954 10 1 C10 0.34 10 -0.32 10 -1 C17.625 0.75 17.625 0.75 21 3 C20.67 3.99 20.34 4.98 20 6 C17.03 5.505 17.03 5.505 14 5 C14 4.01 14 3.02 14 2 C13.34 2 12.68 2 12 2 C11.67 3.32 11.34 4.64 11 6 C7.33694766 6.74926071 4.57644848 7.2380014 1 6 C1 5.34 1 4.68 1 4 C0.34 4 -0.32 4 -1 4 C-1 3.34 -1 2.68 -1 2 C-1.66 2 -2.32 2 -3 2 C-3.33 2.99 -3.66 3.98 -4 5 C-5.65 5.33 -7.3 5.66 -9 6 C-9.33 4.68 -9.66 3.36 -10 2 C-3.84 -1.08 -3.84 -1.08 0 0 Z " fill="#B0B5C3" transform="translate(420,191)"/>
<path d="M0 0 C0.66 0 1.32 0 2 0 C2 0.66 2 1.32 2 2 C2.83144531 1.98839844 3.66289062 1.97679688 4.51953125 1.96484375 C5.60621094 1.95582031 6.69289063 1.94679688 7.8125 1.9375 C8.89144531 1.92589844 9.97039062 1.91429688 11.08203125 1.90234375 C14 2 14 2 17 3 C19.14255793 2.61067144 19.14255793 2.61067144 21 2 C21 1.34 21 0.68 21 0 C21.99 0 22.98 0 24 0 C23.67 1.98 23.34 3.96 23 6 C19.11635476 7.09227522 16.00646918 6.7829277 12.046875 6.1875 C8.96847007 5.90550871 6.04647628 6.54867018 3 7 C1 6.66666667 -1 6.33333333 -3 6 C-4.2375 6.185625 -5.475 6.37125 -6.75 6.5625 C-7.8225 6.706875 -8.895 6.85125 -10 7 C-10.66 6.34 -11.32 5.68 -12 5 C-11.34 5 -10.68 5 -10 5 C-10.33 4.01 -10.66 3.02 -11 2 C-7.7 2 -4.4 2 -1 2 C-0.67 1.34 -0.34 0.68 0 0 Z " fill="#A27E36" transform="translate(416,121)"/>
<path d="M0 0 C3.0625 0.125 3.0625 0.125 5.0625 1.125 C6.3825 1.125 7.7025 1.125 9.0625 1.125 C9.3925 1.125 9.7225 1.125 10.0625 1.125 C10.3925 0.795 10.7225 0.465 11.0625 0.125 C12.5180937 0.02641397 13.97857919 -0.00472143 15.4375 0 C16.22898437 -0.00257813 17.02046875 -0.00515625 17.8359375 -0.0078125 C20.0625 0.125 20.0625 0.125 23.0625 1.125 C23.0625 2.775 23.0625 4.425 23.0625 6.125 C22.0725 6.125 21.0825 6.125 20.0625 6.125 C19.7325 4.805 19.4025 3.485 19.0625 2.125 C18.4025 2.125 17.7425 2.125 17.0625 2.125 C16.7325 3.445 16.4025 4.765 16.0625 6.125 C9.18881267 6.86964946 2.89329148 7.30725237 -3.9375 6.125 C-3.980221 4.45888095 -3.97813832 2.79117115 -3.9375 1.125 C-2.9375 0.125 -2.9375 0.125 0 0 Z " fill="#A2A6B6" transform="translate(309.9375,190.875)"/>
<path d="M0 0 C4.62244876 0.66034982 8.89163347 0.09198384 13.5 -0.5 C13.17 1.48 12.84 3.46 12.5 5.5 C12.17 4.18 11.84 2.86 11.5 1.5 C10.84 1.5 10.18 1.5 9.5 1.5 C9.5 2.82 9.5 4.14 9.5 5.5 C2.57 5.5 -4.36 5.5 -11.5 5.5 C-11.5 3.85 -11.5 2.2 -11.5 0.5 C-9.16666667 0.5 -6.83333333 0.5 -4.5 0.5 C-2.5 -0.5 -2.5 -0.5 0 0 Z " fill="#7660B4" transform="translate(428.5,357.5)"/>
<path d="M0 0 C0.33 0.66 0.66 1.32 1 2 C1.66 2 2.32 2 3 2 C3 1.34 3 0.68 3 0 C3.62648438 0.0721875 4.25296875 0.144375 4.8984375 0.21875 C6.12433594 0.35796875 6.12433594 0.35796875 7.375 0.5 C8.59316406 0.63921875 8.59316406 0.63921875 9.8359375 0.78125 C11.96912825 1.03352351 11.96912825 1.03352351 14 1 C15.093125 1.185625 16.18625 1.37125 17.3125 1.5625 C20.71436575 1.96611119 22.72789697 1.6888638 26 1 C28.8125 1.4375 28.8125 1.4375 31 2 C30.67 3.32 30.34 4.64 30 6 C28.9275 5.814375 27.855 5.62875 26.75 5.4375 C23.4461133 5.05204655 22.03949376 5.16151896 19 6 C18.39414062 5.83242187 17.78828125 5.66484375 17.1640625 5.4921875 C14.70229078 4.93228996 13.03598231 5.18774663 10.5625 5.625 C7.14171033 6.08223426 6.18939025 6.08889747 2.9375 4.5625 C2.298125 4.046875 1.65875 3.53125 1 3 C0.67 3.66 0.34 4.32 0 5 C0 3.35 0 1.7 0 0 Z " fill="#A98337" transform="translate(281,122)"/>
<path d="M0 0 C2.97 0 5.94 0 9 0 C9 3.63 9 7.26 9 11 C3.375 12.125 3.375 12.125 0 11 C0 7.37 0 3.74 0 0 Z " fill="#496EAC" transform="translate(296,354)"/>
<path d="M0 0 C0.66 0 1.32 0 2 0 C2.33 0.66 2.66 1.32 3 2 C3.53496094 1.84789062 4.06992187 1.69578125 4.62109375 1.5390625 C7.43524966 0.901372 10.18797317 0.62433938 13.0625 0.375 C14.10535156 0.27960938 15.14820313 0.18421875 16.22265625 0.0859375 C19 0 19 0 22 1 C22 2.65 22 4.3 22 6 C18.9166866 6.02911321 15.83340875 6.04683682 12.75 6.0625 C11.87730469 6.07087891 11.00460937 6.07925781 10.10546875 6.08789062 C9.26113281 6.09111328 8.41679687 6.09433594 7.546875 6.09765625 C6.38430176 6.10551147 6.38430176 6.10551147 5.19824219 6.11352539 C3.00716402 6.00036998 1.10362139 5.60552448 -1 5 C-0.67 3.35 -0.34 1.7 0 0 Z " fill="#6E59AA" transform="translate(309,357)"/>
<path d="M0 0 C2.93804996 -0.08086376 5.87388075 -0.1404283 8.8125 -0.1875 C9.64587891 -0.21263672 10.47925781 -0.23777344 11.33789062 -0.26367188 C12.54155273 -0.27817383 12.54155273 -0.27817383 13.76953125 -0.29296875 C14.87711792 -0.31653442 14.87711792 -0.31653442 16.00708008 -0.34057617 C18.55727485 0.0952344 19.44175849 0.97376263 21 3 C21 3.66 21 4.32 21 5 C20.26136719 4.98839844 19.52273438 4.97679687 18.76171875 4.96484375 C11.77546152 4.90270423 4.9437237 5.23455014 -2 6 C-1.34 4.02 -0.68 2.04 0 0 Z " fill="#5F4C96" transform="translate(335,358)"/>
<path d="M0 0 C0.7734375 0.08378906 1.546875 0.16757812 2.34375 0.25390625 C9.45710101 0.9672983 9.45710101 0.9672983 16.5625 0.5 C20 0 20 0 23 1 C23 2.65 23 4.3 23 6 C21.741875 6.020625 20.48375 6.04125 19.1875 6.0625 C18.47980469 6.07410156 17.77210938 6.08570313 17.04296875 6.09765625 C15 6 15 6 12 5 C11.01 5.495 11.01 5.495 10 6 C9.34 5.67 8.68 5.34 8 5 C7.67 5.66 7.34 6.32 7 7 C5.68 6.67 4.36 6.34 3 6 C3 4.35 3 2.7 3 1 C2.34 1 1.68 1 1 1 C1 2.65 1 4.3 1 6 C0.67 6 0.34 6 0 6 C0 4.02 0 2.04 0 0 Z " fill="#7862B7" transform="translate(245,357)"/>
<path d="M0 0 C7.26 0 14.52 0 22 0 C22 1.65 22 3.3 22 5 C21.34 5 20.68 5 20 5 C19.67 4.01 19.34 3.02 19 2 C18.01 2.495 18.01 2.495 17 3 C17.66 3.33 18.32 3.66 19 4 C12.71093338 5.35979819 6.4139266 5 0 5 C0 4.34 0 3.68 0 3 C-0.99 2.67 -1.98 2.34 -3 2 C-2.01 2 -1.02 2 0 2 C0 1.34 0 0.68 0 0 Z " fill="#898CA0" transform="translate(325,163)"/>
<path d="M0 0 C0.99 0.33 1.98 0.66 3 1 C2.01 1.495 2.01 1.495 1 2 C0.27306096 3.97888961 -0.39816251 5.97954558 -1 8 C2.3 8.33 5.6 8.66 9 9 C9 6.36 9 3.72 9 1 C9.33 2.32 9.66 3.64 10 5 C10.66 5 11.32 5 12 5 C12.33 3.68 12.66 2.36 13 1 C14.8125 0.375 14.8125 0.375 17 0 C17.99 0.66 18.98 1.32 20 2 C22.11280345 2.63292383 22.11280345 2.63292383 24 3 C22.02 3.99 20.04 4.98 18 6 C17.67 4.68 17.34 3.36 17 2 C16.01 2 15.02 2 14 2 C13.566875 3.36125 13.566875 3.36125 13.125 4.75 C12.23285794 7.3272993 11.21188268 9.57623465 10 12 C10 12.66 10 13.32 10 14 C9.34 14 8.68 14 8 14 C8 13.01 8 12.02 8 11 C7.30132812 11.01160156 6.60265625 11.02320312 5.8828125 11.03515625 C4.97273438 11.04417969 4.06265625 11.05320312 3.125 11.0625 C1.76761719 11.07990234 1.76761719 11.07990234 0.3828125 11.09765625 C-2 11 -2 11 -4 10 C-3.52449439 8.51965236 -3.04448784 7.04074979 -2.5625 5.5625 C-2.29566406 4.73878906 -2.02882813 3.91507812 -1.75390625 3.06640625 C-1 1 -1 1 0 0 Z " fill="#5C35A9" transform="translate(264,74)"/>
<path d="M0 0 C1.95247818 0.2647428 3.90478628 0.53092904 5.85546875 0.80859375 C8.69298842 1.06185143 11.23338807 0.62248768 14 0 C14 0.66 14 1.32 14 2 C14.66 2 15.32 2 16 2 C16 1.34 16 0.68 16 0 C17.65 0 19.3 0 21 0 C21.33 1.65 21.66 3.3 22 5 C18.65747276 5.07427838 16.1964086 5.06546953 13 4 C13 4.33 13 4.66 13 5 C8.05 5 3.1 5 -2 5 C-1 1 -1 1 0 0 Z " fill="#A2A6B6" transform="translate(261,206)"/>
<path d="M0 0 C0.66 0 1.32 0 2 0 C2 0.66 2 1.32 2 2 C3.32 2 4.64 2 6 2 C5.875 3.875 5.875 3.875 5 6 C0.32405014 8.51781916 -3.77057249 7.91938729 -8.828125 7.19140625 C-11.04622023 6.80477344 -11.04622023 6.80477344 -13 8 C-13 6.02 -13 4.04 -13 2 C-9.7 2 -6.4 2 -3 2 C-3 2.99 -3 3.98 -3 5 C-2.34 5 -1.68 5 -1 5 C-0.67 3.35 -0.34 1.7 0 0 Z " fill="#977535" transform="translate(344,121)"/>
<path d="M0 0 C3 1 3 1 5 4 C5 3.34 5 2.68 5 2 C5.556875 2.185625 6.11375 2.37125 6.6875 2.5625 C9.02322803 3.15591199 9.02322803 3.15591199 11.4375 2.5 C14.2832481 1.94473208 16.21591523 2.28409249 19 3 C19 4.32 19 5.64 19 7 C17.02 7.66 15.04 8.32 13 9 C13 8.34 13 7.68 13 7 C12.01 7 11.02 7 10 7 C9.67 7.66 9.34 8.32 9 9 C8.01 8.34 7.02 7.68 6 7 C3.66800612 6.92094936 1.33167378 6.91201231 -1 7 C-0.67 6.34 -0.34 5.68 0 5 C0.66 5.33 1.32 5.66 2 6 C1.34 5.01 0.68 4.02 0 3 C0 2.01 0 1.02 0 0 Z " fill="#424A5D" transform="translate(235,393)"/>
<path d="M0 0 C1.11375 0.2475 1.11375 0.2475 2.25 0.5 C5.19006578 1.11925696 5.19006578 1.11925696 9 1 C9.33 1.33 9.66 1.66 10 2 C10.33 1.34 10.66 0.68 11 0 C13.97 0 16.94 0 20 0 C20 1.65 20 3.3 20 5 C13.66666667 5 7.33333333 5 1 5 C0.67 5.66 0.34 6.32 0 7 C0 4.69 0 2.38 0 0 Z " fill="#AFB3C2" transform="translate(396,163)"/>
<path d="M0 0 C7.92 0 15.84 0 24 0 C23.67 1.32 23.34 2.64 23 4 C22.071875 3.979375 21.14375 3.95875 20.1875 3.9375 C16.97713989 3.84230396 16.97713989 3.84230396 14 5 C11.9140625 4.87890625 11.9140625 4.87890625 9.625 4.5625 C6.38576301 4.15032955 3.27212741 3.8944475 0 4 C0.66 3.67 1.32 3.34 2 3 C2 2.34 2 1.68 2 1 C1.34 0.67 0.68 0.34 0 0 Z " fill="#A88336" transform="translate(490,123)"/>
<path d="M0 0 C0.66 0 1.32 0 2 0 C2.33 1.98 2.66 3.96 3 6 C1.96875 5.95875 0.9375 5.9175 -0.125 5.875 C-3.95374313 5.80310556 -3.95374313 5.80310556 -7.1875 7.125 C-10 8 -10 8 -12.375 7.125 C-12.91125 6.75375 -13.4475 6.3825 -14 6 C-14 4.35 -14 2.7 -14 1 C-12.86111328 1.10828125 -12.86111328 1.10828125 -11.69921875 1.21875 C-10.70535156 1.3115625 -9.71148437 1.404375 -8.6875 1.5 C-7.20830078 1.63921875 -7.20830078 1.63921875 -5.69921875 1.78125 C-2.95297861 2.04038857 -2.95297861 2.04038857 0 2 C0 1.34 0 0.68 0 0 Z " fill="#A07CD4" transform="translate(351,88)"/>
<path d="M0 0 C0.99 0.33 1.98 0.66 3 1 C3.66 1 4.32 1 5 1 C6.34882408 1.63474075 7.6846659 2.29848848 9 3 C8.34 4.32 7.68 5.64 7 7 C2.66666667 7 -1.66666667 7 -6 7 C-6 5.35 -6 3.7 -6 2 C-4.7934375 1.7834375 -4.7934375 1.7834375 -3.5625 1.5625 C-1.07896294 1.25864751 -1.07896294 1.25864751 0 0 Z " fill="#ADB1C0" transform="translate(399,190)"/>
<path d="M0 0 C1.65 0.33 3.3 0.66 5 1 C5 1.66 5 2.32 5 3 C5.66 3 6.32 3 7 3 C7 2.34 7 1.68 7 1 C8.62490954 0.97301811 10.24994633 0.95361243 11.875 0.9375 C12.77992188 0.92589844 13.68484375 0.91429688 14.6171875 0.90234375 C17 1 17 1 19 2 C19 2.66 19 3.32 19 4 C18.34 4 17.68 4 17 4 C17.33 4.99 17.66 5.98 18 7 C17.34 7 16.68 7 16 7 C16 6.01 16 5.02 16 4 C15.01 4.33 14.02 4.66 13 5 C10.77181559 5.06937062 8.54165476 5.08457084 6.3125 5.0625 C4.54326172 5.04896484 4.54326172 5.04896484 2.73828125 5.03515625 C1.83464844 5.02355469 0.93101562 5.01195313 0 5 C-0.33 4.01 -0.66 3.02 -1 2 C-0.67 1.34 -0.34 0.68 0 0 Z " fill="#8B66C5" transform="translate(277,89)"/>
<path d="M0 0 C1.09570312 0.10183594 2.19140625 0.20367187 3.3203125 0.30859375 C4.16335938 0.39238281 5.00640625 0.47617188 5.875 0.5625 C4.885 1.0575 4.885 1.0575 3.875 1.5625 C3.875 2.8825 3.875 4.2025 3.875 5.5625 C3.215 5.5625 2.555 5.5625 1.875 5.5625 C1.875 4.2425 1.875 2.9225 1.875 1.5625 C0.885 1.8925 -0.105 2.2225 -1.125 2.5625 C-1.785 2.2325 -2.445 1.9025 -3.125 1.5625 C-3.125 2.5525 -3.125 3.5425 -3.125 4.5625 C-2.135 4.2325 -1.145 3.9025 -0.125 3.5625 C-0.455 4.5525 -0.785 5.5425 -1.125 6.5625 C-7.75 6.6875 -7.75 6.6875 -11.125 5.5625 C-11.125 3.9125 -11.125 2.2625 -11.125 0.5625 C-10.795 1.2225 -10.465 1.8825 -10.125 2.5625 C-9.465 2.5625 -8.805 2.5625 -8.125 2.5625 C-8.125 1.9025 -8.125 1.2425 -8.125 0.5625 C-5.28943413 -0.85528293 -3.1341294 -0.30007622 0 0 Z " fill="#CFC1E6" transform="translate(301.125,77.4375)"/>
<path d="M0 0 C0.66 0 1.32 0 2 0 C2 1.98 2 3.96 2 6 C1.01 6 0.02 6 -1 6 C-1 5.01 -1 4.02 -1 3 C-1.66 3 -2.32 3 -3 3 C-3.33 3.99 -3.66 4.98 -4 6 C-5.79008467 6.22151549 -7.58218162 6.42682213 -9.375 6.625 C-10.37273437 6.74101563 -11.37046875 6.85703125 -12.3984375 6.9765625 C-13.25695312 6.98429687 -14.11546875 6.99203125 -15 7 C-15.66 6.34 -16.32 5.68 -17 5 C-16.34 5 -15.68 5 -15 5 C-15.33 4.01 -15.66 3.02 -16 2 C-10.72 2 -5.44 2 0 2 C0 1.34 0 0.68 0 0 Z " fill="#A58036" transform="translate(475,121)"/>
<path d="M0 0 C2.43189168 0.85116209 4.69691285 1.84845643 7 3 C6.34 5.31 5.68 7.62 5 10 C1.92468444 9.66753345 0.38167494 9.36895244 -1.875 7.1875 C-3 5 -3 5 -2.8125 2.8125 C-2 1 -2 1 0 0 Z " fill="#ECBE48" transform="translate(295,160)"/>
<path d="M0 0 C-0.33 1.32 -0.66 2.64 -1 4 C-2.5159375 3.9690625 -2.5159375 3.9690625 -4.0625 3.9375 C-7.80327257 3.99687734 -11.31244898 4.39795085 -15 5 C-15.33 3.35 -15.66 1.7 -16 0 C-5.18918919 -1.72972973 -5.18918919 -1.72972973 0 0 Z " fill="#9873CE" transform="translate(336,90)"/>
<path d="M0 0 C0.99 0 1.98 0 3 0 C3 0.66 3 1.32 3 2 C3.66 2 4.32 2 5 2 C5 2.66 5 3.32 5 4 C3.68 3.67 2.36 3.34 1 3 C1 3.66 1 4.32 1 5 C1.66 5.33 2.32 5.66 3 6 C2.01 6 1.02 6 0 6 C-0.61875 6.165 -1.2375 6.33 -1.875 6.5 C-4.30374152 7.07146859 -6.5134919 7.06906967 -9 7 C-9 5.35 -9 3.7 -9 2 C-6.94921875 1.77213542 -4.8984375 1.54427083 -2.84765625 1.31640625 C-0.98859771 1.18113386 -0.98859771 1.18113386 0 0 Z " fill="#B48C37" transform="translate(386,121)"/>
<path d="M0 0 C1.2065625 0.0309375 1.2065625 0.0309375 2.4375 0.0625 C2.7675 1.0525 3.0975 2.0425 3.4375 3.0625 C4.0975 3.0625 4.7575 3.0625 5.4375 3.0625 C4.4375 6.0625 4.4375 6.0625 1.4375 8.0625 C-1.52326291 7.70361965 -2.40908021 7.21591979 -4.5625 5.0625 C-3.80953264 0.09291543 -3.80953264 0.09291543 0 0 Z " fill="#542DA6" transform="translate(264.5625,87.9375)"/>
<path d="M0 0 C2.66666667 0.66666667 5.33333333 1.33333333 8 2 C8 3.98 8 5.96 8 8 C5.6875 8.6875 5.6875 8.6875 3 9 C1.1875 7.9375 1.1875 7.9375 0 6 C-0.1875 2.8125 -0.1875 2.8125 0 0 Z " fill="#E2B647" transform="translate(234,355)"/>
<path d="M0 0 C0.33 1.98 0.66 3.96 1 6 C-2.96 6 -6.92 6 -11 6 C-11 4.35 -11 2.7 -11 1 C-8.66666667 1 -6.33333333 1 -4 1 C-2 0 -2 0 0 0 Z " fill="#6E59A9" transform="translate(428,357)"/>
<path d="M0 0 C1.32 0 2.64 0 4 0 C4 1.32 4 2.64 4 4 C4.66 4 5.32 4 6 4 C6.33 2.68 6.66 1.36 7 0 C7.33 0.66 7.66 1.32 8 2 C9.32 2 10.64 2 12 2 C11.67 3.32 11.34 4.64 11 6 C7.01803543 7.05404945 4.01804691 6.84098656 0 6 C0 4.02 0 2.04 0 0 Z " fill="#725DAF" transform="translate(392,357)"/>
<path d="M0 0 C3.58267395 0.8495679 6.01844608 1.7453703 9.125 3.81640625 C8.795 4.80640625 8.465 5.79640625 8.125 6.81640625 C5.155 6.32140625 5.155 6.32140625 2.125 5.81640625 C2.125 4.82640625 2.125 3.83640625 2.125 2.81640625 C1.465 2.81640625 0.805 2.81640625 0.125 2.81640625 C-0.205 4.13640625 -0.535 5.45640625 -0.875 6.81640625 C-2.195 6.15640625 -3.515 5.49640625 -4.875 4.81640625 C-4.875 2.81640625 -4.875 2.81640625 -3.875 1.06640625 C-1.875 -0.18359375 -1.875 -0.18359375 0 0 Z " fill="#969AAC" transform="translate(431.875,190.18359375)"/>
<path d="M0 0 C3.85645121 -0.22036864 6.49223216 0.39644899 10 2 C10 3.65 10 5.3 10 7 C9.01 7 8.02 7 7 7 C6.67 7.66 6.34 8.32 6 9 C6 8.34 6 7.68 6 7 C5.34 7 4.68 7 4 7 C4 5.35 4 3.7 4 2 C3.01 2 2.02 2 1 2 C1 3.65 1 5.3 1 7 C0.67 7 0.34 7 0 7 C0 4.69 0 2.38 0 0 Z " fill="#A3A7B8" transform="translate(259,161)"/>
<path d="M0 0 C-0.33 1.32 -0.66 2.64 -1 4 C-1.66 3.67 -2.32 3.34 -3 3 C-3 3.66 -3 4.32 -3 5 C-4.98 5 -6.96 5 -9 5 C-9 3.68 -9 2.36 -9 1 C-9.66 1 -10.32 1 -11 1 C-11.33 1.99 -11.66 2.98 -12 4 C-12.33 2.68 -12.66 1.36 -13 0 C-8.38926889 -1.29676812 -4.66159911 -0.71109139 0 0 Z " fill="#9A9EB0" transform="translate(380,192)"/>
<path d="M0 0 C2.64 0.33 5.28 0.66 8 1 C8 2.65 8 4.3 8 6 C4.61608307 7.06351675 3.4195366 7.21442982 0.1875 5.5625 C-0.534375 5.046875 -1.25625 4.53125 -2 4 C-1.34 2.68 -0.68 1.36 0 0 Z " fill="#9DA1B2" transform="translate(445,191)"/>
<path d="M0 0 C1.45922693 0.11409593 2.91740598 0.24165544 4.375 0.375 C5.59316406 0.47941406 5.59316406 0.47941406 6.8359375 0.5859375 C9 1 9 1 11 3 C10.625 5.125 10.625 5.125 10 7 C9.401875 6.814375 8.80375 6.62875 8.1875 6.4375 C5.83591238 5.77906313 5.83591238 5.77906313 3 7 C1.68 5.68 0.36 4.36 -1 3 C-0.67 2.01 -0.34 1.02 0 0 Z " fill="#888B9F" transform="translate(292,190)"/>
<path d="M0 0 C1.9375 0.375 1.9375 0.375 4 1 C4.33 1.66 4.66 2.32 5 3 C5.33 2.01 5.66 1.02 6 0 C6.66 0 7.32 0 8 0 C8 2.31 8 4.62 8 7 C4.7 7 1.4 7 -2 7 C-1.34 4.69 -0.68 2.38 0 0 Z " fill="#E2D9EF" transform="translate(264,76)"/>
<path d="M0 0 C3.3 0 6.6 0 10 0 C10 1.65 10 3.3 10 5 C6.66666667 5 3.33333333 5 0 5 C0 3.35 0 1.7 0 0 Z " fill="#8E91A5" transform="translate(356,192)"/>
<path d="M0 0 C0.99 0 1.98 0 3 0 C6 5.75 6 5.75 6 8 C3.03 8 0.06 8 -3 8 C-1.125 2.25 -1.125 2.25 0 0 Z " fill="#DBBC42" transform="translate(272,120)"/>
<path d="M0 0 C0.33 1.65 0.66 3.3 1 5 C-2.98196457 6.05404945 -5.98195309 5.84098656 -10 5 C-10 3.68 -10 2.36 -10 1 C-8.68 1 -7.36 1 -6 1 C-1.75 0 -1.75 0 0 0 Z " fill="#ADB1C0" transform="translate(346,191)"/>
<path d="M0 0 C8.19256018 -0.4726477 8.19256018 -0.4726477 11.5625 1.5 C12.036875 1.995 12.51125 2.49 13 3 C12.01 3 11.02 3 10 3 C10 3.66 10 4.32 10 5 C6.7 5 3.4 5 0 5 C0 3.35 0 1.7 0 0 Z " fill="#A0A4B5" transform="translate(382,163)"/>
<path d="M0 0 C1.32 0 2.64 0 4 0 C4 1.98 4 3.96 4 6 C-0.455 6.495 -0.455 6.495 -5 7 C-5 5.02 -5 3.04 -5 1 C-4.67 2.32 -4.34 3.64 -4 5 C-3.34 5 -2.68 5 -2 5 C-1.7834375 4.0409375 -1.7834375 4.0409375 -1.5625 3.0625 C-1 1 -1 1 0 0 Z " fill="#B48C39" transform="translate(358,121)"/>
<path d="M0 0 C1.65 0 3.3 0 5 0 C5 0.66 5 1.32 5 2 C5.66 2 6.32 2 7 2 C7 1.34 7 0.68 7 0 C8.98 0 10.96 0 13 0 C12.01 0.495 12.01 0.495 11 1 C10.34786708 3.02463255 10.34786708 3.02463255 10 5 C10 3.68 10 2.36 10 1 C9.34 1 8.68 1 8 1 C7.67 2.32 7.34 3.64 7 5 C7 4.34 7 3.68 7 3 C6.34 3 5.68 3 5 3 C4.67 3.66 4.34 4.32 4 5 C2.35 4.67 0.7 4.34 -1 4 C-0.67 2.68 -0.34 1.36 0 0 Z " fill="#B5B9C8" transform="translate(349,163)"/>
<path d="M0 0 C2 1 4 2 6 3 C6 5 6 5 4.125 7.125 C2 9 2 9 0 9 C-3 5.53846154 -3 5.53846154 -3 3 C-1.5 1.375 -1.5 1.375 0 0 Z " fill="#0B0611" transform="translate(238,80)"/>
<path d="M0 0 C3.3 0 6.6 0 10 0 C10 1.65 10 3.3 10 5 C9.34 5 8.68 5 8 5 C7.67 4.01 7.34 3.02 7 2 C6.01 2.495 6.01 2.495 5 3 C5.66 3.33 6.32 3.66 7 4 C4.23735711 4.59732819 1.83967231 5 -1 5 C-1.33 4.01 -1.66 3.02 -2 2 C-1.34 2 -0.68 2 0 2 C0 1.34 0 0.68 0 0 Z " fill="#AFB3C1" transform="translate(337,163)"/>
<path d="M0 0 C0.763125 0.20625 1.52625 0.4125 2.3125 0.625 C2.3125 2.275 2.3125 3.925 2.3125 5.625 C0.0025 5.625 -2.3075 5.625 -4.6875 5.625 C-5.0175 4.305 -5.3475 2.985 -5.6875 1.625 C-2.6875 -0.375 -2.6875 -0.375 0 0 Z " fill="#64509C" transform="translate(328.6875,357.375)"/>
<path d="M0 0 C0 1.65 0 3.3 0 5 C-6.75 5.125 -6.75 5.125 -9 4 C-8.67 2.68 -8.34 1.36 -8 0 C-4.71303767 -0.79953138 -3.28976808 -1.09658936 0 0 Z " fill="#A8ACBC" transform="translate(390,192)"/>
<path d="M0 0 C0.66 0 1.32 0 2 0 C2.33 0.66 2.66 1.32 3 2 C3.33 1.34 3.66 0.68 4 0 C4.66 0 5.32 0 6 0 C6 2.31 6 4.62 6 7 C5.01 7 4.02 7 3 7 C3 6.34 3 5.68 3 5 C2.01 5 1.02 5 0 5 C0 5.66 0 6.32 0 7 C-0.66 7 -1.32 7 -2 7 C-1.34 4.69 -0.68 2.38 0 0 Z " fill="#B2B6C4" transform="translate(315,161)"/>
<path d="M0 0 C3.96 0 7.92 0 12 0 C11.34 1.32 10.68 2.64 10 4 C6.7 4 3.4 4 0 4 C0 2.68 0 1.36 0 0 Z " fill="#AE8736" transform="translate(364,123)"/>
<path d="M0 0 C2.64 0 5.28 0 8 0 C7.01 0.495 7.01 0.495 6 1 C6 3.64 6 6.28 6 9 C5.67 7.68 5.34 6.36 5 5 C4.34 5 3.68 5 3 5 C2.67 6.32 2.34 7.64 2 9 C2 7.02 2 5.04 2 3 C1.34 3 0.68 3 0 3 C0 2.01 0 1.02 0 0 Z " fill="#D1DDDA" transform="translate(296,355)"/>
<path d="M0 0 C1.65 0 3.3 0 5 0 C5 1.32 5 2.64 5 4 C5.66 4 6.32 4 7 4 C7 2.68 7 1.36 7 0 C7.66 0 8.32 0 9 0 C9 1.65 9 3.3 9 5 C5.33694766 5.74926071 2.57644848 6.2380014 -1 5 C-0.01 4.34 0.98 3.68 2 3 C1.34 3 0.68 3 0 3 C0 2.01 0 1.02 0 0 Z " fill="#5D33AE" transform="translate(298,79)"/>
<path d="M0 0 C0.33 1.65 0.66 3.3 1 5 C-0.98 5.66 -2.96 6.32 -5 7 C-4.67 6.01 -4.34 5.02 -4 4 C-4.99 4 -5.98 4 -7 4 C-7 3.01 -7 2.02 -7 1 C-4.53721199 -0.231394 -2.7204945 -0.07159196 0 0 Z " fill="#3C4159" transform="translate(253,395)"/>
<path d="M0 0 C0.78375 0.33 1.5675 0.66 2.375 1 C4.84332497 2.11866511 4.84332497 2.11866511 7 2 C7.33 3.32 7.66 4.64 8 6 C5.03 6 2.06 6 -1 6 C-1.042721 4.33388095 -1.04063832 2.66617115 -1 1 C-0.67 0.67 -0.34 0.34 0 0 Z " fill="#9498AA" transform="translate(394,191)"/>
<path d="M0 0 C0.99 0 1.98 0 3 0 C2.67 1.98 2.34 3.96 2 6 C-1.28696233 6.79953138 -2.71023192 7.09658936 -6 6 C-6 5.34 -6 4.68 -6 4 C-3 2 -3 2 0 2 C0 1.34 0 0.68 0 0 Z " fill="#977534" transform="translate(437,121)"/>
<path d="M0 0 C2.97 0.99 5.94 1.98 9 3 C9 3.66 9 4.32 9 5 C4.545 6.485 4.545 6.485 0 8 C0.185625 7.236875 0.37125 6.47375 0.5625 5.6875 C1.22819173 2.91032625 1.22819173 2.91032625 0 0 Z " fill="#F2E7FD" transform="translate(559,393)"/>
<path d="M0 0 C0.66 0 1.32 0 2 0 C2.33 0.66 2.66 1.32 3 2 C3.66 2 4.32 2 5 2 C5 3.32 5 4.64 5 6 C6.32 6.33 7.64 6.66 9 7 C3.375 8.125 3.375 8.125 0 7 C0 4.69 0 2.38 0 0 Z " fill="#696841" transform="translate(296,358)"/>
<path d="M0 0 C2.31 0 4.62 0 7 0 C6.67 1.32 6.34 2.64 6 4 C3.36 4.66 0.72 5.32 -2 6 C-1.34 4.02 -0.68 2.04 0 0 Z " fill="#7660B5" transform="translate(335,358)"/>
<path d="M0 0 C2.7839183 1.39195915 2.97898997 3.15575779 4 6 C2.34385343 6.38218767 0.67542976 6.71395102 -1 7 C-1.33 6.67 -1.66 6.34 -2 6 C-2.99 6.99 -3.98 7.98 -5 9 C-4.34 6.69 -3.68 4.38 -3 2 C-2.01 2 -1.02 2 0 2 C0 1.34 0 0.68 0 0 Z " fill="#B0B4C2" transform="translate(290,190)"/>
<path d="M0 0 C0.66 0 1.32 0 2 0 C2 0.66 2 1.32 2 2 C3.32 2 4.64 2 6 2 C5.875 3.875 5.875 3.875 5 6 C1.9375 7.25 1.9375 7.25 -1 8 C-0.67 5.36 -0.34 2.72 0 0 Z " fill="#937233" transform="translate(344,121)"/>
<path d="M0 0 C0.99 0 1.98 0 3 0 C3.66 2.31 4.32 4.62 5 7 C2.69 7 0.38 7 -2 7 C-1.34 4.69 -0.68 2.38 0 0 Z " fill="#E7DFF2" transform="translate(278,76)"/>
<path d="M0 0 C3.3 0 6.6 0 10 0 C9.67 1.65 9.34 3.3 9 5 C8.34 5 7.68 5 7 5 C7 3.68 7 2.36 7 1 C6.34 1 5.68 1 5 1 C5 2.32 5 3.64 5 5 C4.34 5 3.68 5 3 5 C3 4.34 3 3.68 3 3 C2.34 3 1.68 3 1 3 C0.67 3.66 0.34 4.32 0 5 C0 3.35 0 1.7 0 0 Z " fill="#EEE8F7" transform="translate(314,78)"/>
<path d="M0 0 C1.65 0.33 3.3 0.66 5 1 C5 1.66 5 2.32 5 3 C5.66 3 6.32 3 7 3 C7.33 2.34 7.66 1.68 8 1 C7.67 2.32 7.34 3.64 7 5 C4.69 5 2.38 5 0 5 C-0.33 4.01 -0.66 3.02 -1 2 C-0.67 1.34 -0.34 0.68 0 0 Z " fill="#9E7DCD" transform="translate(277,89)"/>
<path d="M0 0 C0.66 0 1.32 0 2 0 C2 2.31 2 4.62 2 7 C-0.97 6.505 -0.97 6.505 -4 6 C-3.67 4.68 -3.34 3.36 -3 2 C-2.01 2 -1.02 2 0 2 C0 1.34 0 0.68 0 0 Z " fill="#989CAE" transform="translate(352,190)"/>
<path d="M0 0 C1.32 0 2.64 0 4 0 C4.66 1.65 5.32 3.3 6 5 C3.36 5 0.72 5 -2 5 C-1.125 1.125 -1.125 1.125 0 0 Z " fill="#A0A4B5" transform="translate(261,206)"/>
<path d="M0 0 C-0.33 1.98 -0.66 3.96 -1 6 C-1.33 4.68 -1.66 3.36 -2 2 C-2.99 2 -3.98 2 -5 2 C-5.33 2.66 -5.66 3.32 -6 4 C-6 3.34 -6 2.68 -6 2 C-6.66 2 -7.32 2 -8 2 C-8.33 2.66 -8.66 3.32 -9 4 C-9.99 4 -10.98 4 -12 4 C-12 3.34 -12 2.68 -12 2 C-10.7625 1.67 -9.525 1.34 -8.25 1 C-7.55390625 0.814375 -6.8578125 0.62875 -6.140625 0.4375 C-4 0 -4 0 0 0 Z " fill="#59468D" transform="translate(442,357)"/>
<path d="M0 0 C2.33944736 0.28730055 4.6739143 0.61936779 7 1 C7 2.65 7 4.3 7 6 C4.03 5.505 4.03 5.505 1 5 C1 4.01 1 3.02 1 2 C0.34 1.67 -0.32 1.34 -1 1 C-0.67 0.67 -0.34 0.34 0 0 Z " fill="#A7ABBB" transform="translate(499,191)"/>
<path d="M0 0 C1.32 0 2.64 0 4 0 C4 2.31 4 4.62 4 7 C3.67 6.34 3.34 5.68 3 5 C1.35 5.66 -0.3 6.32 -2 7 C-1.34 4.69 -0.68 2.38 0 0 Z " fill="#ADB2C1" transform="translate(306,161)"/>
<path d="M0 0 C0.33 0.66 0.66 1.32 1 2 C3.64 2 6.28 2 9 2 C8.34 3.32 7.68 4.64 7 6 C4.69 6 2.38 6 0 6 C0 4.02 0 2.04 0 0 Z " fill="#B18936" transform="translate(314,121)"/>
<path d="M0 0 C2.64 0.33 5.28 0.66 8 1 C8 2.32 8 3.64 8 5 C7.01 5.33 6.02 5.66 5 6 C4.67 4.68 4.34 3.36 4 2 C3.34 2 2.68 2 2 2 C1.67 2.99 1.34 3.98 1 5 C0.67 3.35 0.34 1.7 0 0 Z " fill="#A68135" transform="translate(479,122)"/>
<path d="M0 0 C2.97 0 5.94 0 9 0 C8.67 1.32 8.34 2.64 8 4 C5.36 4 2.72 4 0 4 C0 2.68 0 1.36 0 0 Z " fill="#B89038" transform="translate(505,123)"/>
<path d="M0 0 C0.66 0 1.32 0 2 0 C2 1.98 2 3.96 2 6 C-0.31 6 -2.62 6 -5 6 C-4.67 4.35 -4.34 2.7 -4 1 C-3.01 1.33 -2.02 1.66 -1 2 C-0.67 1.34 -0.34 0.68 0 0 Z " fill="#AB8737" transform="translate(447,121)"/>
<path d="M0 0 C1.32 0 2.64 0 4 0 C4.33 2.31 4.66 4.62 5 7 C3.02 7 1.04 7 -1 7 C-0.67 4.69 -0.34 2.38 0 0 Z " fill="#9270C7" transform="translate(271,88)"/>
<path d="M0 0 C1.65 0.33 3.3 0.66 5 1 C5.33 2.32 5.66 3.64 6 5 C0.25 5.125 0.25 5.125 -2 4 C-2 3.34 -2 2.68 -2 2 C-1.34 2 -0.68 2 0 2 C0 1.34 0 0.68 0 0 Z " fill="#735DAD" transform="translate(350,358)"/>
<path d="M0 0 C0.99 0.99 1.98 1.98 3 3 C1.515 5.475 1.515 5.475 0 8 C-1.5625 6.75 -1.5625 6.75 -3 5 C-2.8125 2.875 -2.8125 2.875 -2 1 C-1.34 0.67 -0.68 0.34 0 0 Z " fill="#CD9D3B" transform="translate(295,160)"/>
<path d="M0 0 C0.99 0 1.98 0 3 0 C3.33 0.99 3.66 1.98 4 3 C4.66 2.01 5.32 1.02 6 0 C6 0.66 6 1.32 6 2 C6.66 2 7.32 2 8 2 C8.33 1.34 8.66 0.68 9 0 C9 0.99 9 1.98 9 3 C8.01 3 7.02 3 6 3 C6 3.66 6 4.32 6 5 C3.69 5 1.38 5 -1 5 C-0.67 3.35 -0.34 1.7 0 0 Z " fill="#C69C3A" transform="translate(518,122)"/>
<path d="M0 0 C1.9375 0.3125 1.9375 0.3125 4 1 C4.33 1.99 4.66 2.98 5 4 C5.66 4 6.32 4 7 4 C7 4.66 7 5.32 7 6 C4 7 4 7 1.8125 6.0625 C1.214375 5.711875 0.61625 5.36125 0 5 C0 3.35 0 1.7 0 0 Z " fill="#8761C8" transform="translate(337,89)"/>
<path d="M0 0 C0.33 0 0.66 0 1 0 C1.144375 0.78375 1.28875 1.5675 1.4375 2.375 C1.87798925 4.96421018 1.87798925 4.96421018 3 7 C2.36729133 8.34977849 1.69937532 9.68352881 1 11 C1 11.66 1 12.32 1 13 C0.34 13 -0.32 13 -1 13 C-1 12.01 -1 11.02 -1 10 C-2.65 10 -4.3 10 -6 10 C-6 9.67 -6 9.34 -6 9 C-4.35 8.67 -2.7 8.34 -1 8 C-0.67 5.36 -0.34 2.72 0 0 Z " fill="#4D23A1" transform="translate(273,75)"/>
<path d="M0 0 C3.3 0 6.6 0 10 0 C10 1.65 10 3.3 10 5 C6.7 4.01 3.4 3.02 0 2 C0 1.34 0 0.68 0 0 Z " fill="#A4A8B8" transform="translate(406,163)"/>
<path d="M0 0 C1.98 0 3.96 0 6 0 C6 1.65 6 3.3 6 5 C4.02 5 2.04 5 0 5 C-0.33 4.34 -0.66 3.68 -1 3 C-0.34 3 0.32 3 1 3 C0.67 2.01 0.34 1.02 0 0 Z " fill="#AE8837" transform="translate(405,123)"/>
<path d="M0 0 C1.67542976 0.28604898 3.34385343 0.61781233 5 1 C5 2.65 5 4.3 5 6 C3.02 6 1.04 6 -1 6 C-1.042721 4.33388095 -1.04063832 2.66617115 -1 1 C-0.67 0.67 -0.34 0.34 0 0 Z " fill="#634F9B" transform="translate(263,357)"/>
<path d="M0 0 C0.625 2.0625 0.625 2.0625 1 4 C-1.31 4 -3.62 4 -6 4 C-6.33 2.68 -6.66 1.36 -7 0 C-2.25 -1.125 -2.25 -1.125 0 0 Z " fill="#B5B9C7" transform="translate(273,207)"/>
<path d="M0 0 C1.98 0 3.96 0 6 0 C6 1.32 6 2.64 6 4 C4.35 4.33 2.7 4.66 1 5 C0.67 3.35 0.34 1.7 0 0 Z " fill="#A78236" transform="translate(324,123)"/>
<path d="M0 0 C1.32 0 2.64 0 4 0 C4 1.32 4 2.64 4 4 C4.66 4 5.32 4 6 4 C6 4.66 6 5.32 6 6 C4.02 6 2.04 6 0 6 C0 4.02 0 2.04 0 0 Z " fill="#7A63BA" transform="translate(392,357)"/>
<path d="M0 0 C1.32 0 2.64 0 4 0 C4 0.66 4 1.32 4 2 C3.34 2 2.68 2 2 2 C2.33 2.99 2.66 3.98 3 5 C1.68 5.33 0.36 5.66 -1 6 C-1.625 4.125 -1.625 4.125 -2 2 C-1.34 1.34 -0.68 0.68 0 0 Z " fill="#9195A6" transform="translate(412,191)"/>
<path d="M0 0 C0.66 0 1.32 0 2 0 C2 0.66 2 1.32 2 2 C2.66 2.33 3.32 2.66 4 3 C2.68 3 1.36 3 0 3 C-0.33 3.99 -0.66 4.98 -1 6 C-2.32 6 -3.64 6 -5 6 C-5 4.68 -5 3.36 -5 2 C-3.68 2 -2.36 2 -1 2 C-0.67 1.34 -0.34 0.68 0 0 Z " fill="#967533" transform="translate(416,121)"/>
<path d="M0 0 C0.66 0 1.32 0 2 0 C2.33 0.66 2.66 1.32 3 2 C3.66 1.67 4.32 1.34 5 1 C5 1.66 5 2.32 5 3 C5.66 3.33 6.32 3.66 7 4 C6.34 4 5.68 4 5 4 C5 4.66 5 5.32 5 6 C2.03 5.505 2.03 5.505 -1 5 C-0.67 3.35 -0.34 1.7 0 0 Z " fill="#866ECB" transform="translate(309,357)"/>
<path d="M0 0 C1.32 0.33 2.64 0.66 4 1 C4 4 4 4 2.5 5.6875 C2.005 6.120625 1.51 6.55375 1 7 C0 6 0 6 -0.0625 2.9375 C-0.041875 1.968125 -0.02125 0.99875 0 0 Z " fill="#C7943A" transform="translate(234,355)"/>
<path d="M0 0 C-0.33 1.32 -0.66 2.64 -1 4 C-1.99 4 -2.98 4 -4 4 C-4 3.01 -4 2.02 -4 1 C-4.66 1 -5.32 1 -6 1 C-6.33 1.99 -6.66 2.98 -7 4 C-7.33 2.68 -7.66 1.36 -8 0 C-4.71303767 -0.79953138 -3.28976808 -1.09658936 0 0 Z " fill="#B5B9C7" transform="translate(375,192)"/>
<path d="M0 0 C1.32 0 2.64 0 4 0 C4 1.65 4 3.3 4 5 C2.68 5 1.36 5 0 5 C0 4.34 0 3.68 0 3 C-0.99 2.67 -1.98 2.34 -3 2 C-2.01 2 -1.02 2 0 2 C0 1.34 0 0.68 0 0 Z " fill="#ABAFBE" transform="translate(325,163)"/>
<path d="M0 0 C1.32 0 2.64 0 4 0 C4 1.98 4 3.96 4 6 C2.35 6 0.7 6 -1 6 C-0.67 4.02 -0.34 2.04 0 0 Z " fill="#A7ABBB" transform="translate(372,163)"/>
<path d="M0 0 C1.65 0 3.3 0 5 0 C4.67 1.65 4.34 3.3 4 5 C2.68 4.34 1.36 3.68 0 3 C0 3.99 0 4.98 0 6 C-0.66 5.67 -1.32 5.34 -2 5 C-1.34 3.35 -0.68 1.7 0 0 Z " fill="#AE8936" transform="translate(392,123)"/>
<path d="M0 0 C0.99 0 1.98 0 3 0 C3 0.99 3 1.98 3 3 C4.65 2.67 6.3 2.34 8 2 C7.67 2.99 7.34 3.98 7 5 C4.69 5 2.38 5 0 5 C0 3.35 0 1.7 0 0 Z " fill="#9B7935" transform="translate(377,123)"/>
<path d="M0 0 C0.66 0 1.32 0 2 0 C2.33 1.98 2.66 3.96 3 6 C1.35 6 -0.3 6 -2 6 C-2 4.68 -2 3.36 -2 2 C-1.34 2 -0.68 2 0 2 C0 1.34 0 0.68 0 0 Z " fill="#9872D1" transform="translate(351,88)"/>
<path d="M0 0 C1.32 0 2.64 0 4 0 C4 1.65 4 3.3 4 5 C2.35 4.67 0.7 4.34 -1 4 C-0.67 2.68 -0.34 1.36 0 0 Z " fill="#E5DBF2" transform="translate(308,78)"/>
<path d="M0 0 C0.99 0.66 1.98 1.32 3 2 C2.67 3.32 2.34 4.64 2 6 C0.68 5.67 -0.64 5.34 -2 5 C-1.125 1.125 -1.125 1.125 0 0 Z " fill="#ACB0BF" transform="translate(300,191)"/>
<path d="M0 0 C2.16874252 0.50603992 3.99967627 0.99983813 6 2 C6 2.66 6 3.32 6 4 C4.02 4.66 2.04 5.32 0 6 C0 4.02 0 2.04 0 0 Z " fill="#AB8537" transform="translate(331,123)"/>
<path d="M0 0 C1.65 0 3.3 0 5 0 C5 1.65 5 3.3 5 5 C3.35 5 1.7 5 0 5 C0 3.35 0 1.7 0 0 Z " fill="#B9BDCA" transform="translate(417,163)"/>
<path d="M0 0 C1.65 0 3.3 0 5 0 C5.33 0.99 5.66 1.98 6 3 C5.67 3.33 5.34 3.66 5 4 C2.66055264 3.71269945 0.3260857 3.38063221 -2 3 C-1.34 2.67 -0.68 2.34 0 2 C0 1.34 0 0.68 0 0 Z " fill="#BF9538" transform="translate(452,123)"/>
<path d="M0 0 C0.33 0.66 0.66 1.32 1 2 C1.66 2 2.32 2 3 2 C3 1.34 3 0.68 3 0 C4.65 0.33 6.3 0.66 8 1 C7.34 2.32 6.68 3.64 6 5 C3.525 4.01 3.525 4.01 1 3 C0.67 3.66 0.34 4.32 0 5 C0 3.35 0 1.7 0 0 Z " fill="#C2973A" transform="translate(281,122)"/>
<path d="M0 0 C1.98 0.495 1.98 0.495 4 1 C3.67 2.32 3.34 3.64 3 5 C1.68 4.67 0.36 4.34 -1 4 C-0.67 2.68 -0.34 1.36 0 0 Z " fill="#5BCD9A" transform="translate(263,89)"/>
<path d="M0 0 C0.99 0.33 1.98 0.66 3 1 C3.33 2.65 3.66 4.3 4 6 C2.68 5.34 1.36 4.68 0 4 C0 4.66 0 5.32 0 6 C-0.66 6 -1.32 6 -2 6 C-1.34 4.02 -0.68 2.04 0 0 Z " fill="#434A5D" transform="translate(310,394)"/>
<path d="M0 0 C1.32 0.33 2.64 0.66 4 1 C3.67 3.31 3.34 5.62 3 8 C2.01 8 1.02 8 0 8 C0.50603992 5.83125748 0.99983813 4.00032373 2 2 C1.34 2 0.68 2 0 2 C0 1.34 0 0.68 0 0 Z " fill="#A02831" transform="translate(383,355)"/>
<path d="M0 0 C0 0.99 0 1.98 0 3 C-0.66 3 -1.32 3 -2 3 C-2 3.66 -2 4.32 -2 5 C-3.32 4.67 -4.64 4.34 -6 4 C-5.67 3.01 -5.34 2.02 -5 1 C-3 0 -3 0 0 0 Z " fill="#8E92A5" transform="translate(286,192)"/>
<path d="M0 0 C1.0625 1.875 1.0625 1.875 2 4 C1.67 4.66 1.34 5.32 1 6 C0.01 6 -0.98 6 -2 6 C-2.33 6.66 -2.66 7.32 -3 8 C-3 5.69 -3 3.38 -3 1 C-2.01 1.495 -2.01 1.495 -1 2 C-0.67 1.34 -0.34 0.68 0 0 Z " fill="#252549" transform="translate(291,160)"/>
<path d="M0 0 C1.32 0.33 2.64 0.66 4 1 C4 2.32 4 3.64 4 5 C2.68 5 1.36 5 0 5 C0 3.35 0 1.7 0 0 Z " fill="#ACB0BF" transform="translate(275,163)"/>
<path d="M0 0 C0 1.65 0 3.3 0 5 C-1.65 5 -3.3 5 -5 5 C-4.625 3.0625 -4.625 3.0625 -4 1 C-2 0 -2 0 0 0 Z " fill="#907133" transform="translate(292,123)"/>
<path d="M0 0 C1.32 0 2.64 0 4 0 C4 1.98 4 3.96 4 6 C3.01 6 2.02 6 1 6 C0.67 4.02 0.34 2.04 0 0 Z " fill="#826531" transform="translate(358,121)"/>
<path d="M0 0 C0.99 0.33 1.98 0.66 3 1 C3 2.32 3 3.64 3 5 C1.68 5 0.36 5 -1 5 C-0.67 3.35 -0.34 1.7 0 0 Z " fill="#41495C" transform="translate(265,395)"/>
<path d="M0 0 C0.66 0 1.32 0 2 0 C2 1.65 2 3.3 2 5 C2.66 5 3.32 5 4 5 C4 5.66 4 6.32 4 7 C2.68 7 1.36 7 0 7 C0 4.69 0 2.38 0 0 Z " fill="#7A7D93" transform="translate(423,161)"/>
<path d="M0 0 C1.65 0 3.3 0 5 0 C5 0.99 5 1.98 5 3 C4.34 3 3.68 3 3 3 C2.67 3.66 2.34 4.32 2 5 C1.34 5 0.68 5 0 5 C0 3.35 0 1.7 0 0 Z " fill="#BCC1CD" transform="translate(382,163)"/>
<path d="M0 0 C1.65 0 3.3 0 5 0 C4.39816251 2.02045442 3.72693904 4.02111039 3 6 C2.01 6.495 2.01 6.495 1 7 C0.67 4.69 0.34 2.38 0 0 Z " fill="#B1B5C4" transform="translate(364,163)"/>
<path d="M0 0 C0.66 0 1.32 0 2 0 C2 2.31 2 4.62 2 7 C1.01 7 0.02 7 -1 7 C-0.67 4.69 -0.34 2.38 0 0 Z " fill="#9093A6" transform="translate(319,161)"/>
<path d="M0 0 C0.99 0 1.98 0 3 0 C3 1.65 3 3.3 3 5 C1.68 4.67 0.36 4.34 -1 4 C-0.67 2.68 -0.34 1.36 0 0 Z " fill="#41485C" transform="translate(302,395)"/>
<path d="M0 0 C0.99 0.33 1.98 0.66 3 1 C3 2.32 3 3.64 3 5 C1.68 4.67 0.36 4.34 -1 4 C-0.67 2.68 -0.34 1.36 0 0 Z " fill="#B3B7C5" transform="translate(280,206)"/>
<path d="M0 0 C1.32 0.33 2.64 0.66 4 1 C4.33 2.32 4.66 3.64 5 5 C3.35 4.67 1.7 4.34 0 4 C0 2.68 0 1.36 0 0 Z " fill="#8B8FA0" transform="translate(496,192)"/>
<path d="M0 0 C1.32 0.66 2.64 1.32 4 2 C3.01 3.485 3.01 3.485 2 5 C0.68 4.34 -0.64 3.68 -2 3 C-1.34 2.67 -0.68 2.34 0 2 C0 1.34 0 0.68 0 0 Z " fill="#12081F" transform="translate(231,157)"/>
</svg>
