<svg xmlns="http://www.w3.org/2000/svg" width="800" height="500" viewBox="0 0 800 500">
  <rect width="800" height="500" fill="#f8f7ff"/>
  <rect x="60" y="40" width="680" height="420" rx="12" fill="white" stroke="#e8e0f5" stroke-width="1.5"/>
  <!-- Header bar -->
  <rect x="60" y="40" width="680" height="52" rx="12" fill="#7c3aed"/>
  <rect x="60" y="68" width="680" height="24" fill="#7c3aed"/>
  <text x="100" y="73" font-family="Arial" font-size="15" fill="white" font-weight="bold">Калькулятор вартості послуг</text>
  <!-- Display -->
  <rect x="90" y="110" width="620" height="70" rx="8" fill="#f3f0ff" stroke="#d8b4fe" stroke-width="1.5"/>
  <text x="690" y="152" font-family="Arial" font-size="28" fill="#7c3aed" font-weight="bold" text-anchor="end">1 500 грн</text>
  <!-- Buttons grid -->
  <rect x="90" y="200" width="140" height="50" rx="8" fill="#f3f0ff" stroke="#d8b4fe" stroke-width="1"/>
  <text x="160" y="231" font-family="Arial" font-size="16" fill="#5b21b6" text-anchor="middle">7</text>
  <rect x="250" y="200" width="140" height="50" rx="8" fill="#f3f0ff" stroke="#d8b4fe" stroke-width="1"/>
  <text x="320" y="231" font-family="Arial" font-size="16" fill="#5b21b6" text-anchor="middle">8</text>
  <rect x="410" y="200" width="140" height="50" rx="8" fill="#f3f0ff" stroke="#d8b4fe" stroke-width="1"/>
  <text x="480" y="231" font-family="Arial" font-size="16" fill="#5b21b6" text-anchor="middle">9</text>
  <rect x="570" y="200" width="140" height="50" rx="8" fill="#7c3aed"/>
  <text x="640" y="231" font-family="Arial" font-size="16" fill="white" text-anchor="middle">+</text>
  <rect x="90" y="265" width="140" height="50" rx="8" fill="#f3f0ff" stroke="#d8b4fe" stroke-width="1"/>
  <text x="160" y="296" font-family="Arial" font-size="16" fill="#5b21b6" text-anchor="middle">4</text>
  <rect x="250" y="265" width="140" height="50" rx="8" fill="#f3f0ff" stroke="#d8b4fe" stroke-width="1"/>
  <text x="320" y="296" font-family="Arial" font-size="16" fill="#5b21b6" text-anchor="middle">5</text>
  <rect x="410" y="265" width="140" height="50" rx="8" fill="#f3f0ff" stroke="#d8b4fe" stroke-width="1"/>
  <text x="480" y="296" font-family="Arial" font-size="16" fill="#5b21b6" text-anchor="middle">6</text>
  <rect x="570" y="265" width="140" height="50" rx="8" fill="#7c3aed"/>
  <text x="640" y="296" font-family="Arial" font-size="16" fill="white" text-anchor="middle">−</text>
  <rect x="90" y="330" width="140" height="50" rx="8" fill="#f3f0ff" stroke="#d8b4fe" stroke-width="1"/>
  <text x="160" y="361" font-family="Arial" font-size="16" fill="#5b21b6" text-anchor="middle">1</text>
  <rect x="250" y="330" width="140" height="50" rx="8" fill="#f3f0ff" stroke="#d8b4fe" stroke-width="1"/>
  <text x="320" y="361" font-family="Arial" font-size="16" fill="#5b21b6" text-anchor="middle">2</text>
  <rect x="410" y="330" width="140" height="50" rx="8" fill="#f3f0ff" stroke="#d8b4fe" stroke-width="1"/>
  <text x="480" y="361" font-family="Arial" font-size="16" fill="#5b21b6" text-anchor="middle">3</text>
  <rect x="570" y="330" width="140" height="115" rx="8" fill="#6d28d9"/>
  <text x="640" y="396" font-family="Arial" font-size="16" fill="white" text-anchor="middle">=</text>
  <rect x="90" y="395" width="305" height="50" rx="8" fill="#f3f0ff" stroke="#d8b4fe" stroke-width="1"/>
  <text x="242" y="426" font-family="Arial" font-size="16" fill="#5b21b6" text-anchor="middle">0</text>
  <rect x="410" y="395" width="140" height="50" rx="8" fill="#f3f0ff" stroke="#d8b4fe" stroke-width="1"/>
  <text x="480" y="426" font-family="Arial" font-size="16" fill="#5b21b6" text-anchor="middle">.</text>
</svg>
