<svg xmlns="http://www.w3.org/2000/svg" width="800" height="500" viewBox="0 0 800 500">
  <defs>
    <filter id="sh" x="-15%" y="-8%" width="130%" height="125%">
      <feDropShadow dx="0" dy="14" stdDeviation="24" flood-color="rgba(0,0,0,0.30)"/>
    </filter>
    <clipPath id="cc">
      <rect x="230" y="20" width="340" height="460" rx="20"/>
    </clipPath>
  </defs>

  <rect width="800" height="500" fill="#6d28d9"/>

  <!-- Card -->
  <rect x="230" y="20" width="340" height="460" rx="20" fill="#ffffff" filter="url(#sh)"/>

  <!-- Header -->
  <rect x="230" y="20" width="340" height="72" rx="20" fill="#7c3aed" clip-path="url(#cc)"/>
  <rect x="230" y="54" width="340" height="38" fill="#7c3aed"/>
  <text x="262" y="64" font-family="'Segoe UI',Arial,sans-serif" font-size="16" font-weight="800" fill="#ffffff">Форма заявки</text>

  <!-- Row: Ім'я + Послуга -->
  <!-- Ім'я label -->
  <text x="262" y="106" font-family="'Segoe UI',Arial,sans-serif" font-size="9" font-weight="700" fill="#9ca3af" letter-spacing="1">ІМ'Я</text>
  <rect x="262" y="112" width="148" height="34" rx="9" fill="#ffffff" stroke="#e5e7eb" stroke-width="1.5"/>
  <text x="276" y="134" font-family="'Segoe UI',Arial,sans-serif" font-size="12" fill="#9ca3af">Ваше ім'я</text>

  <!-- Послуга label -->
  <text x="422" y="106" font-family="'Segoe UI',Arial,sans-serif" font-size="9" font-weight="700" fill="#9ca3af" letter-spacing="1">ПОСЛУГА</text>
  <rect x="422" y="112" width="148" height="34" rx="9" fill="#ffffff" stroke="#e5e7eb" stroke-width="1.5"/>
  <text x="436" y="134" font-family="'Segoe UI',Arial,sans-serif" font-size="12" fill="#9ca3af">Оберіть</text>
  <!-- chevron -->
  <path d="M553 126 l5 5 5-5" stroke="#7c3aed" stroke-width="1.5" fill="none" stroke-linecap="round" stroke-linejoin="round"/>

  <!-- Контакт -->
  <text x="262" y="168" font-family="'Segoe UI',Arial,sans-serif" font-size="9" font-weight="700" fill="#9ca3af" letter-spacing="1">КОНТАКТ</text>
  <rect x="262" y="174" width="308" height="34" rx="9" fill="#ffffff" stroke="#e5e7eb" stroke-width="1.5"/>
  <text x="276" y="196" font-family="'Segoe UI',Arial,sans-serif" font-size="12" fill="#9ca3af">+380 99 000 00 00 або @username</text>
  <text x="262" y="216" font-family="'Segoe UI',Arial,sans-serif" font-size="10" fill="#9ca3af">Телефон або Telegram — як вам зручніше</text>

  <!-- Коментар -->
  <text x="262" y="238" font-family="'Segoe UI',Arial,sans-serif" font-size="9" font-weight="700" fill="#9ca3af" letter-spacing="1">КОМЕНТАР</text>
  <rect x="262" y="244" width="308" height="72" rx="9" fill="#ffffff" stroke="#e5e7eb" stroke-width="1.5"/>
  <text x="276" y="265" font-family="'Segoe UI',Arial,sans-serif" font-size="12" fill="#9ca3af">Опишіть деталі запиту...</text>

  <!-- Divider -->
  <line x1="262" y1="334" x2="570" y2="334" stroke="#f3f4f6" stroke-width="1"/>

  <!-- Button -->
  <rect x="262" y="346" width="308" height="44" rx="10" fill="#1f2937"/>
  <text x="416" y="373" font-family="'Segoe UI',Arial,sans-serif" font-size="14" font-weight="700" fill="#ffffff" text-anchor="middle">Надіслати заявку</text>
</svg>
