<svg xmlns="http://www.w3.org/2000/svg" width="800" height="500" viewBox="0 0 800 500">
  <rect width="800" height="500" fill="#f8f7ff"/>
  <rect x="60" y="30" width="680" height="440" rx="12" fill="white" stroke="#e8e0f5" stroke-width="1.5"/>
  <rect x="60" y="30" width="680" height="54" rx="12" fill="#7c3aed"/>
  <rect x="60" y="60" width="680" height="24" fill="#7c3aed"/>
  <text x="400" y="64" font-family="Arial" font-size="16" fill="white" font-weight="bold" text-anchor="middle">Лютий 2026</text>
  <text x="130" y="64" font-family="Arial" font-size="18" fill="white" text-anchor="middle">‹</text>
  <text x="670" y="64" font-family="Arial" font-size="18" fill="white" text-anchor="middle">›</text>
  <!-- Day headers -->
  <text x="115" y="112" font-family="Arial" font-size="13" fill="#9ca3af" text-anchor="middle">Пн</text>
  <text x="210" y="112" font-family="Arial" font-size="13" fill="#9ca3af" text-anchor="middle">Вт</text>
  <text x="305" y="112" font-family="Arial" font-size="13" fill="#9ca3af" text-anchor="middle">Ср</text>
  <text x="400" y="112" font-family="Arial" font-size="13" fill="#9ca3af" text-anchor="middle">Чт</text>
  <text x="495" y="112" font-family="Arial" font-size="13" fill="#9ca3af" text-anchor="middle">Пт</text>
  <text x="590" y="112" font-family="Arial" font-size="13" fill="#7c3aed" text-anchor="middle">Сб</text>
  <text x="685" y="112" font-family="Arial" font-size="13" fill="#7c3aed" text-anchor="middle">Нд</text>
  <!-- Row 1 -->
  <text x="495" y="155" font-family="Arial" font-size="15" fill="#374151" text-anchor="middle">1</text>
  <text x="590" y="155" font-family="Arial" font-size="15" fill="#9ca3af" text-anchor="middle">2</text>
  <text x="685" y="155" font-family="Arial" font-size="15" fill="#9ca3af" text-anchor="middle">3</text>
  <!-- Row 2 -->
  <text x="115" y="215" font-family="Arial" font-size="15" fill="#374151" text-anchor="middle">4</text>
  <text x="210" y="215" font-family="Arial" font-size="15" fill="#374151" text-anchor="middle">5</text>
  <text x="305" y="215" font-family="Arial" font-size="15" fill="#374151" text-anchor="middle">6</text>
  <circle cx="400" cy="206" r="18" fill="#7c3aed"/>
  <text x="400" y="212" font-family="Arial" font-size="15" fill="white" text-anchor="middle" font-weight="bold">7</text>
  <rect x="468" y="190" width="54" height="34" rx="5" fill="#f3f0ff"/>
  <text x="495" y="212" font-family="Arial" font-size="15" fill="#7c3aed" text-anchor="middle">8</text>
  <text x="590" y="215" font-family="Arial" font-size="15" fill="#9ca3af" text-anchor="middle">9</text>
  <text x="685" y="215" font-family="Arial" font-size="15" fill="#9ca3af" text-anchor="middle">10</text>
  <!-- Row 3 -->
  <text x="115" y="275" font-family="Arial" font-size="15" fill="#374151" text-anchor="middle">11</text>
  <text x="210" y="275" font-family="Arial" font-size="15" fill="#374151" text-anchor="middle">12</text>
  <rect x="278" y="258" width="54" height="34" rx="5" fill="#f3f0ff"/>
  <text x="305" y="280" font-family="Arial" font-size="15" fill="#7c3aed" text-anchor="middle">13</text>
  <rect x="373" y="258" width="54" height="34" rx="5" fill="#f3f0ff"/>
  <text x="400" y="280" font-family="Arial" font-size="15" fill="#7c3aed" text-anchor="middle">14</text>
  <text x="495" y="275" font-family="Arial" font-size="15" fill="#9ca3af" text-anchor="middle">15</text>
  <text x="590" y="275" font-family="Arial" font-size="15" fill="#9ca3af" text-anchor="middle">16</text>
  <text x="685" y="275" font-family="Arial" font-size="15" fill="#9ca3af" text-anchor="middle">17</text>
  <!-- Row 4 -->
  <text x="115" y="335" font-family="Arial" font-size="15" fill="#374151" text-anchor="middle">18</text>
  <text x="210" y="335" font-family="Arial" font-size="15" fill="#374151" text-anchor="middle">19</text>
  <text x="305" y="335" font-family="Arial" font-size="15" fill="#374151" text-anchor="middle">20</text>
  <rect x="373" y="318" width="54" height="34" rx="5" fill="#f3f0ff"/>
  <text x="400" y="340" font-family="Arial" font-size="15" fill="#7c3aed" text-anchor="middle">21</text>
  <text x="495" y="335" font-family="Arial" font-size="15" fill="#374151" text-anchor="middle">22</text>
  <text x="590" y="335" font-family="Arial" font-size="15" fill="#9ca3af" text-anchor="middle">23</text>
  <text x="685" y="335" font-family="Arial" font-size="15" fill="#9ca3af" text-anchor="middle">24</text>
  <!-- Legend -->
  <circle cx="115" cy="415" r="7" fill="#7c3aed"/>
  <text x="130" y="420" font-family="Arial" font-size="12" fill="#6b7280">Вибрана дата</text>
  <rect x="230" y="407" width="14" height="14" rx="3" fill="#f3f0ff"/>
  <text x="252" y="420" font-family="Arial" font-size="12" fill="#6b7280">Доступно</text>
  <rect x="350" y="407" width="14" height="14" rx="3" fill="#f3f0ff" stroke="#e5e7eb"/>
  <text x="372" y="420" font-family="Arial" font-size="12" fill="#9ca3af">Зайнято</text>
</svg>
