<svg xmlns="http://www.w3.org/2000/svg" width="800" height="500" viewBox="0 0 800 500">
  <rect width="800" height="500" fill="#f8f7ff"/>
  <rect x="80" y="30" width="640" height="440" rx="16" fill="white" stroke="#e8e0f5" stroke-width="1.5"/>
  <!-- Top bar -->
  <rect x="80" y="30" width="640" height="54" rx="16" fill="#4c1d95"/>
  <rect x="80" y="60" width="640" height="24" fill="#4c1d95"/>
  <circle cx="150" cy="57" r="22" fill="#7c3aed"/>
  <text x="150" y="63" font-family="Arial" font-size="18" fill="white" text-anchor="middle">✦</text>
  <text x="185" y="52" font-family="Arial" font-size="15" fill="white" font-weight="bold">AI Асистент</text>
  <text x="185" y="68" font-family="Arial" font-size="11" fill="rgba(255,255,255,0.7)">Інтеграція штучного інтелекту</text>
  <rect x="640" y="42" width="64" height="28" rx="6" fill="#7c3aed"/>
  <text x="672" y="61" font-family="Arial" font-size="11" fill="white" text-anchor="middle">Активний</text>
  <!-- Chat messages -->
  <rect x="100" y="100" width="300" height="52" rx="14" fill="#f3f0ff"/>
  <text x="115" y="118" font-family="Arial" font-size="12" fill="#374151">Привіт! Як я можу</text>
  <text x="115" y="134" font-family="Arial" font-size="12" fill="#374151">допомогти вам сьогодні? 🤖</text>
  <text x="100" y="162" font-family="Arial" font-size="10" fill="#9ca3af">AI · зараз</text>
  <rect x="340" y="180" width="340" height="52" rx="14" fill="#7c3aed"/>
  <text x="355" y="198" font-family="Arial" font-size="12" fill="white">Проаналізуй відгуки клієнтів</text>
  <text x="355" y="214" font-family="Arial" font-size="12" fill="white">і визнач головні проблеми</text>
  <text x="658" y="242" font-family="Arial" font-size="10" fill="#9ca3af" text-anchor="end">Ви · 10:32</text>
  <rect x="100" y="255" width="420" height="80" rx="14" fill="#f9f5ff" stroke="#e9d5ff"/>
  <text x="115" y="273" font-family="Arial" font-size="12" fill="#374151" font-weight="bold">📊 Аналіз завершено</text>
  <text x="115" y="291" font-family="Arial" font-size="12" fill="#374151">Виявлено 3 ключові теми:</text>
  <text x="115" y="307" font-family="Arial" font-size="12" fill="#7c3aed">• Затримка доставки (42%)</text>
  <text x="115" y="323" font-family="Arial" font-size="12" fill="#7c3aed">• Якість продукту (31%)</text>
  <text x="100" y="344" font-family="Arial" font-size="10" fill="#9ca3af">AI · 10:33</text>
  <!-- Input bar -->
  <rect x="100" y="430" width="560" height="46" rx="23" fill="#f3f4f6" stroke="#e5e7eb"/>
  <text x="122" y="458" font-family="Arial" font-size="13" fill="#9ca3af">Введіть запит до AI...</text>
  <circle cx="638" cy="453" r="18" fill="#7c3aed"/>
  <text x="638" y="459" font-family="Arial" font-size="15" fill="white" text-anchor="middle">➤</text>
</svg>
